<svg xmlns="http://www.w3.org/2000/svg" xmlns:xlink="http://www.w3.org/1999/xlink" width="150" zoomAndPan="magnify" viewBox="0 0 112.5 112.499997" height="150" preserveAspectRatio="xMidYMid meet" version="1.0"><defs><clipPath id="id1"><path d="M 77 77 L 112.003906 77 L 112.003906 112.003906 L 77 112.003906 Z M 77 77 " clip-rule="nonzero"/></clipPath></defs><path fill="rgb(100%, 100%, 100%)" d="M 40.496094 0.0078125 C 18.21875 0.0078125 0.0976562 18.144531 0.0976562 40.4375 C 0.0976562 62.734375 18.21875 80.871094 40.496094 80.871094 C 62.773438 80.871094 80.894531 62.734375 80.894531 40.4375 C 80.894531 18.144531 62.773438 0.0078125 40.496094 0.0078125 Z M 40.496094 74.515625 C 21.71875 74.515625 6.445312 59.230469 6.445312 40.4375 C 6.445312 21.648438 21.71875 6.359375 40.496094 6.359375 C 59.269531 6.359375 74.542969 21.648438 74.542969 40.4375 C 74.542969 59.230469 59.269531 74.515625 40.496094 74.515625 Z M 40.496094 74.515625 " fill-opacity="1" fill-rule="nonzero"/><path fill="rgb(100%, 100%, 100%)" d="M 80.96875 75.28125 L 73.835938 68.144531 C 72.066406 70.273438 70.09375 72.234375 67.953125 73.996094 L 75.195312 81.242188 C 75.652344 79.925781 76.410156 78.6875 77.457031 77.636719 L 77.660156 77.433594 C 78.617188 76.480469 79.742188 75.753906 80.96875 75.28125 Z M 80.96875 75.28125 " fill-opacity="1" fill-rule="nonzero"/><g clip-path="url(#id1)"><path fill="rgb(100%, 100%, 100%)" d="M 89.101562 79.527344 C 87.859375 78.285156 86.199219 77.597656 84.425781 77.597656 C 82.65625 77.597656 80.996094 78.285156 79.75 79.527344 L 79.550781 79.730469 C 78.308594 80.972656 77.625 82.632812 77.625 84.40625 C 77.625 86.179688 78.308594 87.84375 79.550781 89.085938 L 101.035156 110.589844 C 102.277344 111.832031 103.9375 112.515625 105.710938 112.515625 C 107.480469 112.515625 109.140625 111.832031 110.386719 110.589844 L 110.585938 110.386719 C 113.164062 107.808594 113.164062 103.609375 110.585938 101.03125 Z M 89.101562 79.527344 " fill-opacity="1" fill-rule="nonzero"/></g></svg>