<svg xmlns="http://www.w3.org/2000/svg" xmlns:xlink="http://www.w3.org/1999/xlink" width="150" zoomAndPan="magnify" viewBox="0 0 112.5 112.499997" height="150" preserveAspectRatio="xMidYMid meet" version="1.0"><defs><clipPath id="id1"><path d="M 1 20.460938 L 111 20.460938 L 111 29 L 1 29 Z M 1 20.460938 " clip-rule="nonzero"/></clipPath><clipPath id="id2"><path d="M 1 84 L 60 84 L 60 91.710938 L 1 91.710938 Z M 1 84 " clip-rule="nonzero"/></clipPath></defs><g clip-path="url(#id1)"><path fill="rgb(100%, 100%, 100%)" d="M 106.835938 20.5625 L 5.664062 20.5625 C 0.707031 20.636719 0.65625 28.039062 5.664062 28.113281 C 5.664062 28.113281 106.835938 28.113281 106.835938 28.113281 C 111.792969 28.039062 111.84375 20.636719 106.835938 20.5625 Z M 106.835938 20.5625 " fill-opacity="1" fill-rule="nonzero"/></g><path fill="rgb(100%, 100%, 100%)" d="M 81.542969 52.433594 L 5.664062 52.433594 C 0.707031 52.511719 0.65625 59.914062 5.664062 59.988281 C 5.664062 59.988281 81.542969 59.988281 81.542969 59.988281 C 86.5 59.914062 86.550781 52.511719 81.542969 52.433594 Z M 81.542969 52.433594 " fill-opacity="1" fill-rule="nonzero"/><g clip-path="url(#id2)"><path fill="rgb(100%, 100%, 100%)" d="M 56.25 84.308594 L 5.664062 84.308594 C 0.683594 84.382812 0.65625 91.785156 5.664062 91.863281 C 5.664062 91.863281 56.25 91.863281 56.25 91.863281 C 61.207031 91.785156 61.257812 84.410156 56.25 84.308594 Z M 56.25 84.308594 " fill-opacity="1" fill-rule="nonzero"/></g></svg>