<svg xmlns="http://www.w3.org/2000/svg" xmlns:xlink="http://www.w3.org/1999/xlink" width="150" zoomAndPan="magnify" viewBox="0 0 112.5 112.499997" height="150" preserveAspectRatio="xMidYMid meet" version="1.0"><defs><clipPath id="id1"><path d="M 2.777344 2.777344 L 110.027344 2.777344 L 110.027344 110.027344 L 2.777344 110.027344 Z M 2.777344 2.777344 " clip-rule="nonzero"/></clipPath></defs><path fill="rgb(96.469116%, 90.589905%, 84.709167%)" d="M 56.402344 4.402344 C 85.117188 4.402344 108.398438 27.683594 108.398438 56.402344 C 108.398438 85.117188 85.117188 108.398438 56.402344 108.398438 C 27.683594 108.398438 4.402344 85.117188 4.402344 56.402344 C 4.402344 27.683594 27.683594 4.402344 56.402344 4.402344 Z M 56.402344 4.402344 " fill-opacity="1" fill-rule="nonzero"/><g clip-path="url(#id1)"><path fill="rgb(52.938843%, 26.269531%, 33.729553%)" d="M 56.402344 110.027344 C 26.832031 110.027344 2.777344 85.96875 2.777344 56.402344 C 2.777344 26.832031 26.832031 2.777344 56.402344 2.777344 C 85.96875 2.777344 110.027344 26.832031 110.027344 56.402344 C 110.027344 85.96875 85.96875 110.027344 56.402344 110.027344 Z M 56.402344 6.027344 C 28.625 6.027344 6.027344 28.625 6.027344 56.402344 C 6.027344 84.179688 28.625 106.777344 56.402344 106.777344 C 84.175781 106.777344 106.777344 84.175781 106.777344 56.402344 C 106.777344 28.625 84.179688 6.027344 56.402344 6.027344 Z M 56.402344 6.027344 " fill-opacity="1" fill-rule="nonzero"/></g><path fill="rgb(77.648926%, 36.468506%, 48.239136%)" d="M 60.707031 76.683594 L 40.902344 56.113281 L 60.746094 36.121094 L 65.363281 40.703125 L 49.992188 56.1875 L 65.394531 72.175781 Z M 60.707031 76.683594 " fill-opacity="1" fill-rule="nonzero"/></svg>