<svg xmlns="http://www.w3.org/2000/svg" xmlns:xlink="http://www.w3.org/1999/xlink" width="150" zoomAndPan="magnify" viewBox="0 0 112.5 112.499997" height="150" preserveAspectRatio="xMidYMid meet" version="1.0"><defs><clipPath id="id1"><path d="M 0 15 L 112.003906 15 L 112.003906 103.160156 L 0 103.160156 Z M 0 15 " clip-rule="nonzero"/></clipPath><clipPath id="id2"><path d="M 0 15 L 112.003906 15 L 112.003906 33 L 0 33 Z M 0 15 " clip-rule="nonzero"/></clipPath><clipPath id="id3"><path d="M 17 9.410156 L 27 9.410156 L 27 29 L 17 29 Z M 17 9.410156 " clip-rule="nonzero"/></clipPath><clipPath id="id4"><path d="M 52 9.410156 L 63 9.410156 L 63 29 L 52 29 Z M 52 9.410156 " clip-rule="nonzero"/></clipPath><clipPath id="id5"><path d="M 88 9.410156 L 98 9.410156 L 98 29 L 88 29 Z M 88 9.410156 " clip-rule="nonzero"/></clipPath></defs><g clip-path="url(#id1)"><path fill="rgb(96.469116%, 90.589905%, 84.709167%)" d="M 101.753906 103.09375 L 10.8125 103.09375 C 4.855469 103.09375 0.0273438 98.257812 0.0273438 92.300781 L 0.0273438 26.105469 C 0.0273438 20.140625 4.855469 15.3125 10.8125 15.3125 L 101.753906 15.3125 C 107.714844 15.3125 112.539062 20.140625 112.539062 26.105469 L 112.539062 92.300781 C 112.539062 98.257812 107.714844 103.09375 101.753906 103.09375 " fill-opacity="1" fill-rule="nonzero"/></g><g clip-path="url(#id2)"><path fill="rgb(77.648926%, 36.468506%, 48.239136%)" d="M 112.539062 32.128906 L 112.539062 26.105469 C 112.539062 20.140625 107.714844 15.3125 101.753906 15.3125 L 10.8125 15.3125 C 4.855469 15.3125 0.0273438 20.140625 0.0273438 26.105469 L 0.0273438 32.128906 L 112.539062 32.128906 " fill-opacity="1" fill-rule="nonzero"/></g><path fill="rgb(60.389709%, 69.018555%, 87.838745%)" d="M 52.554688 52.160156 L 37.378906 52.160156 L 37.378906 36.972656 L 52.554688 36.972656 L 52.554688 52.160156 " fill-opacity="1" fill-rule="nonzero"/><path fill="rgb(60.389709%, 69.018555%, 87.838745%)" d="M 75.1875 52.160156 L 60.015625 52.160156 L 60.015625 36.972656 L 75.1875 36.972656 L 75.1875 52.160156 " fill-opacity="1" fill-rule="nonzero"/><path fill="rgb(60.389709%, 69.018555%, 87.838745%)" d="M 97.824219 52.160156 L 82.644531 52.160156 L 82.644531 36.972656 L 97.824219 36.972656 L 97.824219 52.160156 " fill-opacity="1" fill-rule="nonzero"/><path fill="rgb(83.529663%, 25.099182%, 31.369019%)" d="M 29.921875 72.191406 L 14.742188 72.191406 L 14.742188 57.003906 L 29.921875 57.003906 L 29.921875 72.191406 " fill-opacity="1" fill-rule="nonzero"/><path fill="rgb(60.389709%, 69.018555%, 87.838745%)" d="M 52.554688 72.191406 L 37.378906 72.191406 L 37.378906 57.003906 L 52.554688 57.003906 L 52.554688 72.191406 " fill-opacity="1" fill-rule="nonzero"/><path fill="rgb(60.389709%, 69.018555%, 87.838745%)" d="M 75.1875 72.191406 L 60.015625 72.191406 L 60.015625 57.003906 L 75.1875 57.003906 L 75.1875 72.191406 " fill-opacity="1" fill-rule="nonzero"/><path fill="rgb(60.389709%, 69.018555%, 87.838745%)" d="M 97.824219 72.191406 L 82.644531 72.191406 L 82.644531 57.003906 L 97.824219 57.003906 L 97.824219 72.191406 " fill-opacity="1" fill-rule="nonzero"/><path fill="rgb(83.529663%, 25.099182%, 31.369019%)" d="M 29.921875 92.222656 L 14.742188 92.222656 L 14.742188 77.035156 L 29.921875 77.035156 L 29.921875 92.222656 " fill-opacity="1" fill-rule="nonzero"/><path fill="rgb(60.389709%, 69.018555%, 87.838745%)" d="M 52.554688 92.222656 L 37.378906 92.222656 L 37.378906 77.035156 L 52.554688 77.035156 L 52.554688 92.222656 " fill-opacity="1" fill-rule="nonzero"/><path fill="rgb(60.389709%, 69.018555%, 87.838745%)" d="M 75.1875 92.222656 L 60.015625 92.222656 L 60.015625 77.035156 L 75.1875 77.035156 L 75.1875 92.222656 " fill-opacity="1" fill-rule="nonzero"/><g clip-path="url(#id3)"><path fill="rgb(9.799194%, 14.898682%, 27.449036%)" d="M 22.101562 28.460938 C 19.410156 28.460938 17.226562 26.277344 17.226562 23.582031 L 17.226562 14.359375 C 17.226562 11.660156 19.410156 9.472656 22.101562 9.472656 C 24.796875 9.472656 26.980469 11.660156 26.980469 14.359375 L 26.980469 23.582031 C 26.980469 26.277344 24.796875 28.460938 22.101562 28.460938 " fill-opacity="1" fill-rule="nonzero"/></g><g clip-path="url(#id4)"><path fill="rgb(9.799194%, 14.898682%, 27.449036%)" d="M 57.527344 28.460938 C 54.832031 28.460938 52.644531 26.277344 52.644531 23.582031 L 52.644531 14.359375 C 52.644531 11.660156 54.832031 9.472656 57.527344 9.472656 C 60.21875 9.472656 62.402344 11.660156 62.402344 14.359375 L 62.402344 23.582031 C 62.402344 26.277344 60.21875 28.460938 57.527344 28.460938 " fill-opacity="1" fill-rule="nonzero"/></g><g clip-path="url(#id5)"><path fill="rgb(9.799194%, 14.898682%, 27.449036%)" d="M 92.941406 28.460938 C 90.25 28.460938 88.066406 26.277344 88.066406 23.582031 L 88.066406 14.359375 C 88.066406 11.660156 90.25 9.472656 92.941406 9.472656 C 95.636719 9.472656 97.824219 11.660156 97.824219 14.359375 L 97.824219 23.582031 C 97.824219 26.277344 95.636719 28.460938 92.941406 28.460938 " fill-opacity="1" fill-rule="nonzero"/></g><path stroke-linecap="round" transform="matrix(0.0567036, 0, 0, -0.0567462, -48.935228, 176.926485)" fill="none" stroke-linejoin="round" d="M 1991.675602 1617.480709 L 2073.033385 1541.00255 L 2217.906727 1787.921681 " stroke="rgb(83.529663%, 25.099182%, 31.369019%)" stroke-width="54.101002" stroke-opacity="1" stroke-miterlimit="10"/></svg>