<svg xmlns="http://www.w3.org/2000/svg" xmlns:xlink="http://www.w3.org/1999/xlink" width="150" zoomAndPan="magnify" viewBox="0 0 112.5 112.499997" height="150" preserveAspectRatio="xMidYMid meet" version="1.0"><defs><clipPath id="id1"><path d="M 0 0 L 112.003906 0 L 112.003906 112.003906 L 0 112.003906 Z M 0 0 " clip-rule="nonzero"/></clipPath></defs><g clip-path="url(#id1)"><path fill="rgb(100%, 100%, 100%)" d="M 112.5 56.25 C 112.5 58.09375 112.410156 59.929688 112.230469 61.761719 C 112.046875 63.597656 111.777344 65.417969 111.417969 67.222656 C 111.058594 69.03125 110.613281 70.816406 110.078125 72.578125 C 109.542969 74.339844 108.921875 76.074219 108.21875 77.777344 C 107.511719 79.476562 106.726562 81.140625 105.859375 82.765625 C 104.988281 84.390625 104.042969 85.96875 103.019531 87.5 C 101.996094 89.03125 100.902344 90.511719 99.730469 91.933594 C 98.5625 93.359375 97.328125 94.722656 96.023438 96.023438 C 94.722656 97.328125 93.359375 98.5625 91.933594 99.730469 C 90.511719 100.902344 89.03125 101.996094 87.5 103.019531 C 85.96875 104.042969 84.390625 104.988281 82.765625 105.859375 C 81.140625 106.726562 79.476562 107.511719 77.777344 108.21875 C 76.074219 108.921875 74.339844 109.542969 72.578125 110.078125 C 70.816406 110.613281 69.03125 111.058594 67.222656 111.417969 C 65.417969 111.777344 63.597656 112.046875 61.761719 112.230469 C 59.929688 112.410156 58.09375 112.5 56.25 112.5 C 54.40625 112.5 52.570312 112.410156 50.738281 112.230469 C 48.902344 112.046875 47.082031 111.777344 45.277344 111.417969 C 43.46875 111.058594 41.683594 110.613281 39.921875 110.078125 C 38.160156 109.542969 36.425781 108.921875 34.722656 108.21875 C 33.023438 107.511719 31.359375 106.726562 29.734375 105.859375 C 28.109375 104.988281 26.53125 104.042969 25 103.019531 C 23.46875 101.996094 21.988281 100.902344 20.566406 99.730469 C 19.140625 98.5625 17.777344 97.328125 16.476562 96.023438 C 15.171875 94.722656 13.9375 93.359375 12.769531 91.933594 C 11.597656 90.511719 10.503906 89.03125 9.480469 87.5 C 8.457031 85.96875 7.511719 84.390625 6.640625 82.765625 C 5.773438 81.140625 4.988281 79.476562 4.28125 77.777344 C 3.578125 76.074219 2.957031 74.339844 2.421875 72.578125 C 1.886719 70.816406 1.441406 69.03125 1.082031 67.222656 C 0.722656 65.417969 0.453125 63.597656 0.269531 61.761719 C 0.0898438 59.929688 0 58.09375 0 56.25 C 0 54.40625 0.0898438 52.570312 0.269531 50.738281 C 0.453125 48.902344 0.722656 47.082031 1.082031 45.277344 C 1.441406 43.46875 1.886719 41.683594 2.421875 39.921875 C 2.957031 38.160156 3.578125 36.425781 4.28125 34.722656 C 4.988281 33.023438 5.773438 31.359375 6.640625 29.734375 C 7.511719 28.109375 8.457031 26.53125 9.480469 25 C 10.503906 23.46875 11.597656 21.988281 12.769531 20.566406 C 13.9375 19.140625 15.171875 17.777344 16.476562 16.476562 C 17.777344 15.171875 19.140625 13.9375 20.566406 12.769531 C 21.988281 11.597656 23.46875 10.503906 25 9.480469 C 26.53125 8.457031 28.109375 7.511719 29.734375 6.640625 C 31.359375 5.773438 33.023438 4.988281 34.722656 4.28125 C 36.425781 3.578125 38.160156 2.957031 39.921875 2.421875 C 41.683594 1.886719 43.46875 1.441406 45.277344 1.082031 C 47.082031 0.722656 48.902344 0.453125 50.738281 0.269531 C 52.570312 0.0898438 54.40625 0 56.25 0 C 58.09375 0 59.929688 0.0898438 61.761719 0.269531 C 63.597656 0.453125 65.417969 0.722656 67.222656 1.082031 C 69.03125 1.441406 70.816406 1.886719 72.578125 2.421875 C 74.339844 2.957031 76.074219 3.578125 77.777344 4.28125 C 79.476562 4.988281 81.140625 5.773438 82.765625 6.640625 C 84.390625 7.511719 85.96875 8.457031 87.5 9.480469 C 89.03125 10.503906 90.511719 11.597656 91.933594 12.769531 C 93.359375 13.9375 94.722656 15.171875 96.023438 16.476562 C 97.328125 17.777344 98.5625 19.140625 99.730469 20.566406 C 100.902344 21.988281 101.996094 23.46875 103.019531 25 C 104.042969 26.53125 104.988281 28.109375 105.859375 29.734375 C 106.726562 31.359375 107.511719 33.023438 108.21875 34.722656 C 108.921875 36.425781 109.542969 38.160156 110.078125 39.921875 C 110.613281 41.683594 111.058594 43.46875 111.417969 45.277344 C 111.777344 47.082031 112.046875 48.902344 112.230469 50.738281 C 112.410156 52.570312 112.5 54.40625 112.5 56.25 Z M 112.5 56.25 " fill-opacity="1" fill-rule="nonzero"/></g><path fill="rgb(100%, 100%, 100%)" d="M 46.351562 24.375 C 38.175781 27.226562 31.125 33.300781 27.226562 41.101562 C 25.875 43.800781 24.898438 46.574219 24.300781 49.574219 C 22.800781 56.925781 23.851562 64.726562 27.226562 71.398438 C 29.398438 75.75 32.550781 79.648438 36.375 82.648438 C 39.976562 85.5 44.175781 87.675781 48.601562 88.800781 C 54.226562 90.300781 60.226562 90.226562 65.851562 88.949219 C 70.949219 87.75 75.824219 85.351562 79.726562 81.75 C 83.851562 78 86.699219 73.050781 88.273438 67.726562 C 89.925781 61.949219 90.148438 55.726562 89.101562 49.800781 C 78.523438 49.800781 67.949219 49.800781 57.375 49.800781 C 57.375 54.226562 57.375 58.574219 57.375 63 C 63.523438 63 69.601562 63 75.75 63 C 75.074219 67.199219 72.523438 71.101562 69 73.425781 C 66.75 74.925781 64.199219 75.898438 61.574219 76.351562 C 58.949219 76.800781 56.175781 76.875 53.476562 76.351562 C 50.773438 75.824219 48.226562 74.699219 45.976562 73.050781 C 42.375 70.5 39.601562 66.824219 38.25 62.699219 C 36.824219 58.5 36.824219 53.773438 38.25 49.574219 C 39.300781 46.648438 40.949219 43.875 43.125 41.625 C 45.824219 38.851562 49.351562 36.824219 53.25 36 C 56.550781 35.324219 59.925781 35.398438 63.148438 36.375 C 65.851562 37.199219 68.324219 38.699219 70.425781 40.648438 C 72.523438 38.550781 74.550781 36.523438 76.648438 34.425781 C 77.773438 33.300781 78.898438 32.25 79.949219 31.125 C 76.800781 28.199219 73.125 25.875 69.074219 24.375 C 61.800781 21.898438 53.699219 21.824219 46.351562 24.375 Z M 46.351562 24.375 " fill-opacity="1" fill-rule="nonzero"/><path fill="rgb(91.758728%, 26.269531%, 20.779419%)" d="M 46.351562 24.449219 C 53.625 21.976562 61.800781 21.976562 69.074219 24.675781 C 73.050781 26.175781 76.800781 28.425781 79.875 31.425781 C 78.824219 32.550781 77.699219 33.601562 76.648438 34.726562 C 74.550781 36.824219 72.523438 38.851562 70.425781 40.949219 C 68.398438 39 65.925781 37.5 63.148438 36.675781 C 60 35.699219 56.476562 35.550781 53.25 36.300781 C 49.5 37.125 45.898438 39.148438 43.199219 41.925781 C 41.023438 44.175781 39.300781 46.875 38.324219 49.875 C 34.648438 47.023438 30.976562 44.175781 27.300781 41.324219 C 31.199219 33.375 38.175781 27.226562 46.351562 24.449219 Z M 46.351562 24.449219 " fill-opacity="1" fill-rule="nonzero"/><path fill="rgb(98.429871%, 73.728943%, 1.959229%)" d="M 24.375 49.574219 C 24.976562 46.648438 25.949219 43.800781 27.300781 41.101562 C 30.976562 43.949219 34.648438 46.800781 38.324219 49.648438 C 36.898438 53.851562 36.898438 58.574219 38.324219 62.773438 C 34.648438 65.625 30.976562 68.476562 27.300781 71.324219 C 23.925781 64.726562 22.875 56.925781 24.375 49.574219 Z M 24.375 49.574219 " fill-opacity="1" fill-rule="nonzero"/><path fill="rgb(25.878906%, 52.159119%, 95.689392%)" d="M 57.375 49.949219 C 67.949219 49.949219 78.523438 49.949219 89.101562 49.949219 C 90.148438 55.875 89.925781 62.023438 88.273438 67.800781 C 86.699219 73.125 83.851562 78 79.726562 81.824219 C 76.125 79.050781 72.601562 76.273438 69 73.5 C 72.523438 71.101562 75 67.273438 75.75 63.074219 C 69.601562 63.074219 63.523438 63.074219 57.375 63.074219 C 57.375 58.726562 57.375 54.300781 57.375 49.949219 Z M 57.375 49.949219 " fill-opacity="1" fill-rule="nonzero"/><path fill="rgb(20.388794%, 65.879822%, 32.548523%)" d="M 27.300781 71.398438 C 30.976562 68.550781 34.648438 65.699219 38.324219 62.851562 C 39.75 66.976562 42.449219 70.648438 46.050781 73.199219 C 48.300781 74.773438 50.851562 75.898438 53.550781 76.425781 C 56.175781 76.949219 58.949219 76.875 61.574219 76.425781 C 64.199219 75.976562 66.75 75 69 73.5 C 72.601562 76.273438 76.125 79.050781 79.726562 81.824219 C 75.824219 85.425781 71.023438 87.824219 65.925781 89.023438 C 60.300781 90.300781 54.300781 90.375 48.675781 88.875 C 44.25 87.675781 40.050781 85.574219 36.449219 82.726562 C 32.625 79.648438 29.476562 75.675781 27.300781 71.398438 Z M 27.300781 71.398438 " fill-opacity="1" fill-rule="nonzero"/></svg>