<svg xmlns="http://www.w3.org/2000/svg" xmlns:xlink="http://www.w3.org/1999/xlink" width="150" zoomAndPan="magnify" viewBox="0 0 112.5 112.499997" height="150" preserveAspectRatio="xMidYMid meet" version="1.0"><defs><clipPath id="id1"><path d="M 2.53125 0 L 79 0 L 79 111 L 2.53125 111 Z M 2.53125 0 " clip-rule="nonzero"/></clipPath><clipPath id="id2"><path d="M 60 31 L 112.003906 31 L 112.003906 68 L 60 68 Z M 60 31 " clip-rule="nonzero"/></clipPath></defs><g clip-path="url(#id1)"><path fill="rgb(100%, 100%, 100%)" d="M 78.433594 36.308594 L 70.902344 36.308594 L 70.902344 9.027344 L 21.960938 9.027344 C 28.292969 12.710938 33.359375 15.925781 38.679688 18.648438 C 42.0625 20.378906 43.179688 22.710938 43.152344 26.433594 C 42.996094 43.296875 43.082031 60.175781 43.082031 77.039062 C 43.082031 79.148438 43.082031 81.238281 43.082031 83.628906 L 70.667969 83.628906 L 70.667969 62.578125 L 78.402344 62.578125 C 78.402344 71.0625 78.53125 79.359375 78.34375 87.660156 C 78.277344 91.003906 75.761719 91.792969 72.851562 91.773438 C 64.917969 91.734375 56.988281 91.753906 49.039062 91.753906 L 43.054688 91.753906 C 43.054688 96.476562 43.191406 100.839844 43.023438 105.183594 C 42.839844 110.21875 40.375 111.644531 36.03125 109.199219 C 25.855469 103.453125 15.683594 97.710938 5.707031 91.644531 C 4.148438 90.703125 2.707031 88.109375 2.6875 86.261719 C 2.503906 59.574219 2.597656 32.867188 2.53125 6.167969 C 2.53125 2.351562 4.246094 0.902344 7.839844 0.902344 C 29.539062 0.941406 51.238281 0.949219 72.9375 0.921875 C 75.839844 0.921875 78.34375 1.671875 78.382812 5.070312 C 78.519531 15.34375 78.433594 25.625 78.433594 36.308594 " fill-opacity="1" fill-rule="nonzero"/></g><g clip-path="url(#id2)"><path fill="rgb(100%, 100%, 100%)" d="M 86.382812 54.859375 C 79.777344 54.859375 73.824219 54.910156 67.871094 54.851562 C 62.902344 54.800781 60.058594 52.710938 60.4375 49.222656 C 60.90625 44.878906 63.964844 43.839844 67.765625 43.878906 C 73.726562 43.9375 79.691406 43.898438 86.382812 43.898438 C 86.382812 40.921875 86.296875 38.210938 86.402344 35.511719 C 86.570312 31.535156 88.070312 30.554688 91.121094 32.703125 C 97.734375 37.367188 104.222656 42.246094 110.734375 47.074219 C 112.777344 48.601562 112.828125 50.273438 110.734375 51.808594 C 104.070312 56.707031 97.433594 61.652344 90.691406 66.425781 C 87.902344 68.40625 86.511719 66.929688 86.414062 63.898438 C 86.324219 61.136719 86.382812 58.367188 86.382812 54.859375 " fill-opacity="1" fill-rule="nonzero"/></g></svg>