<svg xmlns="http://www.w3.org/2000/svg" xmlns:xlink="http://www.w3.org/1999/xlink" width="150" zoomAndPan="magnify" viewBox="0 0 112.5 112.499997" height="150" preserveAspectRatio="xMidYMid meet" version="1.0"><defs><clipPath id="id1"><path d="M 0 0 L 112.003906 0 L 112.003906 112.003906 L 0 112.003906 Z M 0 0 " clip-rule="nonzero"/></clipPath></defs><g clip-path="url(#id1)"><path fill="rgb(77.648926%, 36.468506%, 48.239136%)" d="M 112.5 56.25 C 112.5 87.316406 87.316406 112.5 56.25 112.5 C 25.183594 112.5 0 87.316406 0 56.25 C 0 25.183594 25.183594 0 56.25 0 C 87.316406 0 112.5 25.183594 112.5 56.25 " fill-opacity="1" fill-rule="nonzero"/></g><path fill="rgb(100%, 100%, 100%)" d="M 83.738281 51.496094 L 61.007812 51.496094 L 61.007812 28.765625 L 51.492188 28.765625 L 51.492188 51.496094 L 28.761719 51.496094 L 28.761719 61.007812 L 51.492188 61.007812 L 51.492188 83.738281 L 61.007812 83.738281 L 61.007812 61.007812 L 83.738281 61.007812 L 83.738281 51.496094 " fill-opacity="1" fill-rule="nonzero"/></svg>