<svg xmlns="http://www.w3.org/2000/svg" xmlns:xlink="http://www.w3.org/1999/xlink" width="150" zoomAndPan="magnify" viewBox="0 0 112.5 112.499997" height="150" preserveAspectRatio="xMidYMid meet" version="1.0"><defs><clipPath id="id1"><path d="M 0 0 L 112.003906 0 L 112.003906 108.75 L 0 108.75 Z M 0 0 " clip-rule="nonzero"/></clipPath></defs><g clip-path="url(#id1)"><path fill="rgb(77.648926%, 36.468506%, 48.239136%)" d="M 106.851562 105 L 5.648438 105 C 4.613281 105 3.773438 104.160156 3.773438 103.125 L 3.773438 18.75 L 108.726562 18.75 L 108.726562 103.125 C 108.726562 104.160156 107.886719 105 106.851562 105 Z M 5.648438 3.75 L 106.851562 3.75 C 107.886719 3.75 108.726562 4.589844 108.726562 5.625 L 108.726562 15 L 3.773438 15 L 3.773438 5.625 C 3.773438 4.589844 4.613281 3.75 5.648438 3.75 Z M 106.851562 0 L 5.648438 0 C 2.546875 0 0.0234375 2.523438 0.0234375 5.625 L 0.0234375 103.125 C 0.0234375 106.226562 2.546875 108.75 5.648438 108.75 L 106.851562 108.75 C 109.953125 108.75 112.476562 106.226562 112.476562 103.125 L 112.476562 5.625 C 112.476562 2.523438 109.953125 0 106.851562 0 " fill-opacity="1" fill-rule="nonzero"/></g><path fill="rgb(77.648926%, 36.468506%, 48.239136%)" d="M 24.390625 11.25 C 25.421875 11.25 26.261719 10.410156 26.261719 9.375 C 26.261719 8.339844 25.421875 7.5 24.390625 7.5 C 23.355469 7.5 22.515625 8.339844 22.515625 9.375 C 22.515625 10.410156 23.355469 11.25 24.390625 11.25 " fill-opacity="1" fill-rule="nonzero"/><path fill="rgb(77.648926%, 36.468506%, 48.239136%)" d="M 16.890625 11.25 C 17.925781 11.25 18.765625 10.410156 18.765625 9.375 C 18.765625 8.339844 17.925781 7.5 16.890625 7.5 C 15.855469 7.5 15.019531 8.339844 15.019531 9.375 C 15.019531 10.410156 15.855469 11.25 16.890625 11.25 " fill-opacity="1" fill-rule="nonzero"/><path fill="rgb(77.648926%, 36.468506%, 48.239136%)" d="M 9.394531 11.25 C 10.429688 11.25 11.269531 10.410156 11.269531 9.375 C 11.269531 8.339844 10.429688 7.5 9.394531 7.5 C 8.359375 7.5 7.519531 8.339844 7.519531 9.375 C 7.519531 10.410156 8.359375 11.25 9.394531 11.25 " fill-opacity="1" fill-rule="nonzero"/><path fill="rgb(77.648926%, 36.468506%, 48.239136%)" d="M 76.867188 78.75 L 43.128906 78.75 L 43.128906 75 L 76.867188 75 Z M 35.632812 75 L 39.382812 75 L 39.382812 78.75 L 35.632812 78.75 Z M 78.742188 71.25 L 33.757812 71.25 C 32.726562 71.25 31.886719 72.089844 31.886719 73.125 L 31.886719 80.625 C 31.886719 81.660156 32.726562 82.5 33.757812 82.5 L 78.742188 82.5 C 79.773438 82.5 80.613281 81.660156 80.613281 80.625 L 80.613281 73.125 C 80.613281 72.089844 79.773438 71.25 78.742188 71.25 " fill-opacity="1" fill-rule="nonzero"/><path fill="rgb(77.648926%, 36.468506%, 48.239136%)" d="M 76.867188 93.75 L 43.128906 93.75 L 43.128906 90 L 76.867188 90 Z M 35.632812 90 L 39.382812 90 L 39.382812 93.75 L 35.632812 93.75 Z M 78.742188 86.25 L 33.757812 86.25 C 32.726562 86.25 31.886719 87.089844 31.886719 88.125 L 31.886719 95.625 C 31.886719 96.660156 32.726562 97.5 33.757812 97.5 L 78.742188 97.5 C 79.773438 97.5 80.613281 96.660156 80.613281 95.625 L 80.613281 88.125 C 80.613281 87.089844 79.773438 86.25 78.742188 86.25 " fill-opacity="1" fill-rule="nonzero"/><path fill="rgb(77.648926%, 36.468506%, 48.239136%)" d="M 56.25 30 C 65.550781 30 73.117188 37.570312 73.117188 46.875 C 73.117188 49.855469 72.328125 52.753906 70.859375 55.300781 C 68.84375 51.039062 65.640625 47.816406 61.882812 46.1875 C 63.042969 44.867188 63.746094 43.140625 63.746094 41.25 C 63.746094 37.113281 60.382812 33.75 56.25 33.75 C 52.117188 33.75 48.753906 37.113281 48.753906 41.25 C 48.753906 43.140625 49.457031 44.867188 50.617188 46.1875 C 46.859375 47.816406 43.65625 51.039062 41.640625 55.300781 C 40.171875 52.753906 39.382812 49.855469 39.382812 46.875 C 39.382812 37.570312 46.949219 30 56.25 30 Z M 52.5 41.25 C 52.5 39.183594 54.183594 37.5 56.25 37.5 C 58.316406 37.5 60 39.183594 60 41.25 C 60 43.316406 58.316406 45 56.25 45 C 54.183594 45 52.5 43.316406 52.5 41.25 Z M 44.273438 58.75 C 46.375 52.726562 51.085938 48.75 56.25 48.75 C 61.414062 48.75 66.125 52.726562 68.226562 58.75 C 65.070312 61.9375 60.761719 63.75 56.25 63.75 C 51.738281 63.75 47.429688 61.9375 44.273438 58.75 Z M 56.25 67.5 C 62.191406 67.5 67.84375 64.933594 71.757812 60.460938 C 75.050781 56.703125 76.867188 51.878906 76.867188 46.875 C 76.867188 35.503906 67.617188 26.25 56.25 26.25 C 44.882812 26.25 35.632812 35.503906 35.632812 46.875 C 35.632812 51.878906 37.449219 56.703125 40.742188 60.460938 C 44.65625 64.933594 50.308594 67.5 56.25 67.5 " fill-opacity="1" fill-rule="nonzero"/></svg>