<svg xmlns="http://www.w3.org/2000/svg" xmlns:xlink="http://www.w3.org/1999/xlink" width="150" zoomAndPan="magnify" viewBox="0 0 112.5 112.499997" height="150" preserveAspectRatio="xMidYMid meet" version="1.0"><path fill="rgb(77.648926%, 36.468506%, 48.239136%)" d="M 55.5 111 C 24.90625 111 0 86.09375 0 55.5 C 0 24.90625 24.90625 0 55.5 0 C 86.09375 0 111 24.90625 111 55.5 C 111 86.09375 86.09375 111 55.5 111 Z M 55.5 2.707031 C 26.394531 2.707031 2.707031 26.394531 2.707031 55.5 C 2.707031 84.605469 26.394531 108.292969 55.5 108.292969 C 84.605469 108.292969 108.292969 84.605469 108.292969 55.5 C 108.292969 26.394531 84.605469 2.707031 55.5 2.707031 Z M 55.5 2.707031 " fill-opacity="1" fill-rule="nonzero"/><path fill="rgb(77.648926%, 36.468506%, 48.239136%)" d="M 45.347656 83.386719 L 37.226562 83.386719 C 33.433594 83.386719 30.457031 80.40625 30.457031 76.617188 L 30.457031 33.300781 C 30.457031 29.507812 33.433594 26.53125 37.226562 26.53125 L 69.714844 26.53125 C 73.503906 26.53125 76.480469 29.507812 76.480469 33.300781 L 76.480469 44.128906 L 73.773438 44.128906 L 73.773438 33.300781 C 73.773438 31 72.015625 29.238281 69.714844 29.238281 L 37.226562 29.238281 C 34.925781 29.238281 33.164062 31 33.164062 33.300781 L 33.164062 76.617188 C 33.164062 78.917969 34.925781 80.679688 37.226562 80.679688 L 45.347656 80.679688 Z M 51.304688 83.386719 L 60.777344 81.355469 C 61.050781 81.355469 61.320312 81.21875 61.457031 80.949219 L 81.355469 61.050781 C 83.925781 58.476562 83.925781 54.144531 81.355469 51.4375 C 80.136719 50.222656 78.375 49.410156 76.617188 49.410156 C 74.855469 49.410156 73.097656 50.085938 71.878906 51.4375 L 51.84375 71.472656 C 51.710938 71.609375 51.574219 71.878906 51.4375 72.148438 L 49.542969 81.761719 C 49.410156 82.167969 49.542969 82.707031 49.949219 82.980469 C 50.222656 83.25 50.492188 83.386719 50.898438 83.386719 C 51.03125 83.386719 51.167969 83.386719 51.304688 83.386719 Z M 73.640625 53.46875 C 75.128906 51.980469 77.835938 51.980469 79.324219 53.46875 C 80.949219 55.09375 80.949219 57.664062 79.324219 59.15625 L 59.832031 78.78125 L 52.65625 80.273438 L 54.011719 73.097656 Z M 64.296875 37.359375 L 42.640625 37.359375 L 42.640625 40.066406 L 64.296875 40.066406 Z M 64.296875 48.191406 L 42.640625 48.191406 L 42.640625 50.898438 L 64.296875 50.898438 Z M 64.296875 48.191406 " fill-opacity="1" fill-rule="nonzero"/></svg>