<svg xmlns="http://www.w3.org/2000/svg" xmlns:xlink="http://www.w3.org/1999/xlink" width="150" zoomAndPan="magnify" viewBox="0 0 112.5 37.5" height="50" preserveAspectRatio="xMidYMid meet" version="1.0"><defs><clipPath id="id1"><path d="M 0.492188 3.71875 L 111.511719 3.71875 L 111.511719 31.96875 L 0.492188 31.96875 Z M 0.492188 3.71875 " clip-rule="nonzero"/></clipPath></defs><g clip-path="url(#id1)"><path fill="rgb(0%, 0%, 0%)" d="M 14.433594 3.71875 C 6.730469 3.71875 0.492188 10.039062 0.492188 17.84375 C 0.492188 25.644531 6.730469 31.96875 14.433594 31.96875 C 22.132812 31.96875 28.371094 25.644531 28.371094 17.84375 C 28.371094 10.039062 22.132812 3.71875 14.433594 3.71875 Z M 98.066406 3.71875 C 90.367188 3.71875 84.128906 10.039062 84.128906 17.84375 C 84.128906 25.644531 90.367188 31.96875 98.066406 31.96875 C 105.769531 31.96875 112.007812 25.644531 112.007812 17.84375 C 112.007812 10.039062 105.769531 3.71875 98.066406 3.71875 Z M 56.25 3.71875 C 48.546875 3.71875 42.3125 10.039062 42.3125 17.84375 C 42.3125 25.644531 48.546875 31.96875 56.25 31.96875 C 63.953125 31.96875 70.1875 25.644531 70.1875 17.84375 C 70.1875 10.039062 63.953125 3.71875 56.25 3.71875 Z M 56.25 3.71875 " fill-opacity="1" fill-rule="nonzero"/></g></svg>