<svg xmlns="http://www.w3.org/2000/svg" xmlns:xlink="http://www.w3.org/1999/xlink" width="40" zoomAndPan="magnify" viewBox="0 0 30 37.5" height="50" preserveAspectRatio="xMidYMid meet" version="1.0"><defs><clipPath id="id1"><path d="M 1.121094 4.625 L 29.246094 4.625 L 29.246094 32.75 L 1.121094 32.75 Z M 1.121094 4.625 " clip-rule="nonzero"/></clipPath></defs><g clip-path="url(#id1)"><path fill="#c65d7b" d="M 29.234375 18.703125 C 29.234375 26.449219 22.933594 32.75 15.1875 32.75 C 7.4375 32.75 1.136719 26.449219 1.136719 18.703125 C 1.136719 10.953125 7.4375 4.652344 15.1875 4.652344 C 18.792969 4.652344 22.230469 6.058594 24.804688 8.46875 L 24.769531 5.976562 C 24.757812 5.242188 25.34375 4.640625 26.074219 4.632812 C 26.804688 4.625 27.40625 5.207031 27.417969 5.9375 L 27.511719 12.28125 C 27.523438 13.011719 26.9375 13.613281 26.207031 13.625 L 19.859375 13.71875 C 19.855469 13.71875 19.847656 13.71875 19.839844 13.71875 C 19.117188 13.71875 18.527344 13.136719 18.515625 12.414062 C 18.507812 11.683594 19.089844 11.082031 19.820312 11.070312 L 23.601562 11.015625 C 21.460938 8.683594 18.40625 7.300781 15.1875 7.300781 C 8.898438 7.300781 3.785156 12.414062 3.785156 18.703125 C 3.785156 24.988281 8.898438 30.101562 15.1875 30.101562 C 21.472656 30.101562 26.585938 24.988281 26.585938 18.703125 C 26.585938 17.96875 27.179688 17.378906 27.910156 17.378906 C 28.640625 17.378906 29.234375 17.96875 29.234375 18.703125 Z M 29.234375 18.703125 " fill-opacity="1" fill-rule="nonzero"/></g></svg>