<svg xmlns="http://www.w3.org/2000/svg" xmlns:xlink="http://www.w3.org/1999/xlink" width="100" zoomAndPan="magnify" viewBox="0 0 75 74.999997" height="100" preserveAspectRatio="xMidYMid meet" version="1.0"><defs><g/><clipPath id="id1"><path d="M 7.5 15 L 67.5 15 L 67.5 27 L 7.5 27 Z M 7.5 15 " clip-rule="nonzero"/></clipPath><clipPath id="id2"><path d="M 7.5 24.140625 L 67.5 24.140625 L 67.5 64.488281 L 7.5 64.488281 Z M 7.5 24.140625 " clip-rule="nonzero"/></clipPath></defs><path fill="#fc6467" d="M 66.5625 18.289062 L 66.5625 25.183594 L 8.4375 25.183594 L 8.4375 18.289062 C 8.4375 17 9.488281 15.953125 10.78125 15.953125 L 64.21875 15.953125 C 65.511719 15.953125 66.5625 17 66.5625 18.289062 " fill-opacity="1" fill-rule="nonzero"/><path fill="#fffff9" d="M 8.4375 25.183594 L 8.4375 61.214844 C 8.4375 62.503906 9.488281 63.550781 10.78125 63.550781 L 64.21875 63.550781 C 65.511719 63.550781 66.5625 62.503906 66.5625 61.214844 L 66.5625 25.183594 L 8.4375 25.183594 " fill-opacity="1" fill-rule="nonzero"/><g clip-path="url(#id1)"><path fill="#c65d7b" d="M 66.5625 26.117188 C 66.042969 26.117188 65.625 25.699219 65.625 25.183594 L 65.625 18.289062 C 65.625 17.515625 64.992188 16.886719 64.21875 16.886719 L 10.78125 16.886719 C 10.007812 16.886719 9.375 17.515625 9.375 18.289062 L 9.375 25.183594 C 9.375 25.699219 8.957031 26.117188 8.4375 26.117188 C 7.917969 26.117188 7.5 25.699219 7.5 25.183594 L 7.5 18.289062 C 7.5 16.484375 8.972656 15.019531 10.78125 15.019531 L 64.21875 15.019531 C 66.027344 15.019531 67.5 16.484375 67.5 18.289062 L 67.5 25.183594 C 67.5 25.699219 67.082031 26.117188 66.5625 26.117188 " fill-opacity="1" fill-rule="nonzero"/></g><g clip-path="url(#id2)"><path fill="#c65d7b" d="M 9.375 26.117188 L 9.375 61.214844 C 9.375 61.988281 10.007812 62.617188 10.78125 62.617188 L 64.21875 62.617188 C 64.992188 62.617188 65.625 61.988281 65.625 61.214844 L 65.625 26.117188 Z M 64.21875 64.488281 L 10.78125 64.488281 C 8.972656 64.488281 7.5 63.019531 7.5 61.214844 L 7.5 25.183594 C 7.5 24.667969 7.917969 24.25 8.4375 24.25 L 66.5625 24.25 C 67.082031 24.25 67.5 24.667969 67.5 25.183594 L 67.5 61.214844 C 67.5 63.019531 66.027344 64.488281 64.21875 64.488281 " fill-opacity="1" fill-rule="nonzero"/></g><path fill="#c65d7b" d="M 15.742188 21.933594 C 14.988281 21.933594 14.375 21.320312 14.375 20.570312 C 14.375 19.816406 14.988281 19.207031 15.742188 19.207031 C 16.496094 19.207031 17.109375 19.816406 17.109375 20.570312 C 17.109375 21.320312 16.496094 21.933594 15.742188 21.933594 " fill-opacity="1" fill-rule="nonzero"/><path fill="#c65d7b" d="M 21.132812 21.933594 C 20.378906 21.933594 19.765625 21.320312 19.765625 20.570312 C 19.765625 19.816406 20.378906 19.207031 21.132812 19.207031 C 21.886719 19.207031 22.5 19.816406 22.5 20.570312 C 22.5 21.320312 21.886719 21.933594 21.132812 21.933594 " fill-opacity="1" fill-rule="nonzero"/><path fill="#c65d7b" d="M 26.523438 21.933594 C 25.769531 21.933594 25.15625 21.320312 25.15625 20.570312 C 25.15625 19.816406 25.769531 19.207031 26.523438 19.207031 C 27.277344 19.207031 27.890625 19.816406 27.890625 20.570312 C 27.890625 21.320312 27.277344 21.933594 26.523438 21.933594 " fill-opacity="1" fill-rule="nonzero"/><path fill="#c65d7b" d="M 18.238281 47.003906 L 23.96875 47.003906 L 23.96875 39.046875 Z M 24.90625 53.53125 C 24.390625 53.53125 23.96875 53.109375 23.96875 52.59375 L 23.96875 48.875 L 16.410156 48.875 C 16.058594 48.875 15.738281 48.679688 15.578125 48.367188 C 15.417969 48.054688 15.445312 47.679688 15.648438 47.394531 L 24.144531 35.597656 C 24.382812 35.265625 24.808594 35.128906 25.195312 35.25 C 25.582031 35.375 25.84375 35.734375 25.84375 36.140625 L 25.84375 47.003906 L 27.867188 47.003906 C 28.386719 47.003906 28.804688 47.425781 28.804688 47.941406 C 28.804688 48.457031 28.386719 48.875 27.867188 48.875 L 25.84375 48.875 L 25.84375 52.59375 C 25.84375 53.109375 25.425781 53.53125 24.90625 53.53125 " fill-opacity="1" fill-rule="nonzero"/><path fill="#c65d7b" d="M 48.960938 47.003906 L 54.691406 47.003906 L 54.691406 39.046875 Z M 55.628906 53.53125 C 55.109375 53.53125 54.691406 53.109375 54.691406 52.59375 L 54.691406 48.875 L 47.132812 48.875 C 46.78125 48.875 46.457031 48.679688 46.296875 48.367188 C 46.136719 48.054688 46.164062 47.679688 46.371094 47.394531 L 54.867188 35.597656 C 55.105469 35.265625 55.527344 35.128906 55.914062 35.25 C 56.304688 35.375 56.566406 35.734375 56.566406 36.140625 L 56.566406 47.003906 L 58.589844 47.003906 C 59.105469 47.003906 59.527344 47.425781 59.527344 47.941406 C 59.527344 48.457031 59.105469 48.875 58.589844 48.875 L 56.566406 48.875 L 56.566406 52.59375 C 56.566406 53.109375 56.144531 53.53125 55.628906 53.53125 " fill-opacity="1" fill-rule="nonzero"/><path fill="#c65d7b" d="M 37.5 37.074219 C 35.429688 37.074219 33.746094 38.753906 33.746094 40.820312 L 33.746094 47.917969 C 33.746094 49.980469 35.429688 51.660156 37.5 51.660156 C 39.570312 51.660156 41.253906 49.980469 41.253906 47.917969 L 41.253906 40.820312 C 41.253906 38.753906 39.570312 37.074219 37.5 37.074219 Z M 37.5 53.53125 C 34.394531 53.53125 31.871094 51.011719 31.871094 47.917969 L 31.871094 40.820312 C 31.871094 37.722656 34.394531 35.207031 37.5 35.207031 C 40.605469 35.207031 43.128906 37.722656 43.128906 40.820312 L 43.128906 47.917969 C 43.128906 51.011719 40.605469 53.53125 37.5 53.53125 " fill-opacity="1" fill-rule="nonzero"/><g fill="#c65d7b" fill-opacity="1"><g transform="translate(18.091641, 73.430727)"><g><path d="M 4.554688 -5.664062 L 3.433594 -5.664062 L 3.433594 -3.289062 L 3.472656 -2.148438 L 1.648438 -5.664062 L 0.40625 -5.664062 L 0.40625 0 L 1.519531 0 L 1.519531 -2.375 L 1.480469 -3.515625 L 3.3125 0 L 4.554688 0 Z M 4.554688 -5.664062 "/></g></g></g><g fill="#c65d7b" fill-opacity="1"><g transform="translate(23.051706, 73.430727)"><g><path d="M 2.441406 0.09375 C 3.914062 0.09375 4.605469 -0.726562 4.605469 -2.6875 L 4.605469 -2.976562 C 4.605469 -4.9375 3.914062 -5.757812 2.441406 -5.757812 C 0.972656 -5.757812 0.285156 -4.9375 0.285156 -2.976562 L 0.285156 -2.6875 C 0.285156 -0.726562 0.972656 0.09375 2.441406 0.09375 Z M 2.410156 -0.921875 C 1.683594 -0.921875 1.472656 -1.554688 1.472656 -2.6875 L 1.472656 -2.976562 C 1.472656 -4.109375 1.683594 -4.742188 2.410156 -4.742188 L 2.476562 -4.742188 C 3.203125 -4.742188 3.40625 -4.109375 3.40625 -2.976562 L 3.40625 -2.6875 C 3.40625 -1.554688 3.203125 -0.921875 2.476562 -0.921875 Z M 2.410156 -0.921875 "/></g></g></g><g fill="#c65d7b" fill-opacity="1"><g transform="translate(27.939143, 73.430727)"><g><path d="M 2.605469 -4.648438 L 3.921875 -4.648438 L 3.921875 -5.664062 L 0.125 -5.664062 L 0.125 -4.648438 L 1.429688 -4.648438 L 1.429688 0 L 2.605469 0 Z M 2.605469 -4.648438 "/></g></g></g><g fill="#c65d7b" fill-opacity="1"><g transform="translate(31.984176, 73.430727)"><g/></g></g><g fill="#c65d7b" fill-opacity="1"><g transform="translate(33.436615, 73.430727)"><g><path d="M 0.40625 -5.664062 L 0.40625 0 L 1.582031 0 L 1.582031 -2.382812 L 3.480469 -2.382812 L 3.480469 -3.398438 L 1.582031 -3.398438 L 1.582031 -4.648438 L 3.839844 -4.648438 L 3.839844 -5.664062 Z M 0.40625 -5.664062 "/></g></g></g><g fill="#c65d7b" fill-opacity="1"><g transform="translate(37.423545, 73.430727)"><g><path d="M 2.441406 0.09375 C 3.914062 0.09375 4.605469 -0.726562 4.605469 -2.6875 L 4.605469 -2.976562 C 4.605469 -4.9375 3.914062 -5.757812 2.441406 -5.757812 C 0.972656 -5.757812 0.285156 -4.9375 0.285156 -2.976562 L 0.285156 -2.6875 C 0.285156 -0.726562 0.972656 0.09375 2.441406 0.09375 Z M 2.410156 -0.921875 C 1.683594 -0.921875 1.472656 -1.554688 1.472656 -2.6875 L 1.472656 -2.976562 C 1.472656 -4.109375 1.683594 -4.742188 2.410156 -4.742188 L 2.476562 -4.742188 C 3.203125 -4.742188 3.40625 -4.109375 3.40625 -2.976562 L 3.40625 -2.6875 C 3.40625 -1.554688 3.203125 -0.921875 2.476562 -0.921875 Z M 2.410156 -0.921875 "/></g></g></g><g fill="#c65d7b" fill-opacity="1"><g transform="translate(42.310983, 73.430727)"><g><path d="M 2.402344 0.09375 C 3.941406 0.09375 4.445312 -0.558594 4.445312 -1.792969 L 4.445312 -5.664062 L 3.269531 -5.664062 L 3.269531 -1.828125 C 3.269531 -1.226562 3.070312 -0.921875 2.402344 -0.921875 C 1.734375 -0.921875 1.546875 -1.226562 1.546875 -1.828125 L 1.546875 -5.664062 L 0.371094 -5.664062 L 0.371094 -1.792969 C 0.371094 -0.558594 0.863281 0.09375 2.402344 0.09375 Z M 2.402344 0.09375 "/></g></g></g><g fill="#c65d7b" fill-opacity="1"><g transform="translate(47.125802, 73.430727)"><g><path d="M 4.554688 -5.664062 L 3.433594 -5.664062 L 3.433594 -3.289062 L 3.472656 -2.148438 L 1.648438 -5.664062 L 0.40625 -5.664062 L 0.40625 0 L 1.519531 0 L 1.519531 -2.375 L 1.480469 -3.515625 L 3.3125 0 L 4.554688 0 Z M 4.554688 -5.664062 "/></g></g></g><g fill="#c65d7b" fill-opacity="1"><g transform="translate(52.085867, 73.430727)"><g><path d="M 4.53125 -2.6875 L 4.53125 -2.976562 C 4.53125 -4.9375 3.828125 -5.664062 2.140625 -5.664062 L 0.40625 -5.664062 L 0.40625 0 L 2.140625 0 C 3.828125 0 4.53125 -0.726562 4.53125 -2.6875 Z M 1.582031 -1.015625 L 1.582031 -4.648438 L 2.078125 -4.648438 C 3.058594 -4.648438 3.332031 -4.109375 3.332031 -2.976562 L 3.332031 -2.6875 C 3.332031 -1.554688 3.058594 -1.015625 2.078125 -1.015625 Z M 1.582031 -1.015625 "/></g></g></g><g fill="#c65d7b" fill-opacity="1"><g transform="translate(25.221379, 10.880731)"><g><path d="M 2.441406 0.09375 C 3.914062 0.09375 4.605469 -0.726562 4.605469 -2.6875 L 4.605469 -2.976562 C 4.605469 -4.9375 3.914062 -5.757812 2.441406 -5.757812 C 0.972656 -5.757812 0.285156 -4.9375 0.285156 -2.976562 L 0.285156 -2.6875 C 0.285156 -0.726562 0.972656 0.09375 2.441406 0.09375 Z M 2.410156 -0.921875 C 1.683594 -0.921875 1.472656 -1.554688 1.472656 -2.6875 L 1.472656 -2.976562 C 1.472656 -4.109375 1.683594 -4.742188 2.410156 -4.742188 L 2.476562 -4.742188 C 3.203125 -4.742188 3.40625 -4.109375 3.40625 -2.976562 L 3.40625 -2.6875 C 3.40625 -1.554688 3.203125 -0.921875 2.476562 -0.921875 Z M 2.410156 -0.921875 "/></g></g></g><g fill="#c65d7b" fill-opacity="1"><g transform="translate(30.108817, 10.880731)"><g><path d="M 2.441406 0.09375 C 3.914062 0.09375 4.605469 -0.726562 4.605469 -2.6875 L 4.605469 -2.976562 C 4.605469 -4.9375 3.914062 -5.757812 2.441406 -5.757812 C 0.972656 -5.757812 0.285156 -4.9375 0.285156 -2.976562 L 0.285156 -2.6875 C 0.285156 -0.726562 0.972656 0.09375 2.441406 0.09375 Z M 2.410156 -0.921875 C 1.683594 -0.921875 1.472656 -1.554688 1.472656 -2.6875 L 1.472656 -2.976562 C 1.472656 -4.109375 1.683594 -4.742188 2.410156 -4.742188 L 2.476562 -4.742188 C 3.203125 -4.742188 3.40625 -4.109375 3.40625 -2.976562 L 3.40625 -2.6875 C 3.40625 -1.554688 3.203125 -0.921875 2.476562 -0.921875 Z M 2.410156 -0.921875 "/></g></g></g><g fill="#c65d7b" fill-opacity="1"><g transform="translate(34.996254, 10.880731)"><g><path d="M 1.582031 -2.035156 L 2.265625 -2.035156 C 3.1875 -2.035156 4.234375 -2.265625 4.234375 -3.777344 L 4.234375 -3.921875 C 4.234375 -5.425781 3.1875 -5.664062 2.265625 -5.664062 L 0.40625 -5.664062 L 0.40625 0 L 1.582031 0 Z M 1.582031 -3.050781 L 1.582031 -4.648438 L 2.316406 -4.648438 C 2.636719 -4.648438 3.042969 -4.523438 3.042969 -3.886719 L 3.042969 -3.8125 C 3.042969 -3.171875 2.636719 -3.050781 2.316406 -3.050781 Z M 1.582031 -3.050781 "/></g></g></g><g fill="#c65d7b" fill-opacity="1"><g transform="translate(39.418913, 10.880731)"><g><path d="M 2.105469 -2.367188 C 2.925781 -2.257812 3.136719 -2.035156 3.136719 -1.625 L 3.136719 -1.589844 C 3.136719 -1.210938 2.867188 -0.921875 2.324219 -0.921875 L 2.257812 -0.921875 C 1.714844 -0.921875 1.421875 -1.21875 1.421875 -1.933594 L 0.246094 -1.933594 L 0.246094 -1.867188 C 0.246094 -0.5 0.953125 0.09375 2.289062 0.09375 C 3.617188 0.09375 4.335938 -0.539062 4.335938 -1.625 L 4.335938 -1.699219 C 4.335938 -2.753906 3.710938 -3.171875 2.476562 -3.339844 C 1.648438 -3.449219 1.480469 -3.667969 1.480469 -4.082031 L 1.480469 -4.117188 C 1.480469 -4.480469 1.757812 -4.742188 2.230469 -4.742188 L 2.292969 -4.742188 C 2.890625 -4.742188 3.117188 -4.402344 3.117188 -3.660156 L 4.292969 -3.660156 L 4.292969 -3.8125 C 4.292969 -5.140625 3.683594 -5.757812 2.289062 -5.757812 C 0.996094 -5.757812 0.289062 -5.097656 0.289062 -4.074219 L 0.289062 -3.996094 C 0.289062 -2.96875 0.871094 -2.535156 2.105469 -2.367188 Z M 2.105469 -2.367188 "/></g></g></g><g fill="#c65d7b" fill-opacity="1"><g transform="translate(44.001343, 10.880731)"><g><path d="M 0.253906 -5.664062 L 0.558594 -1.65625 L 1.371094 -1.65625 L 1.675781 -5.664062 Z M 1.570312 -1.210938 L 0.363281 -1.210938 L 0.363281 0 L 1.570312 0 Z M 1.570312 -1.210938 "/></g></g></g><g fill="#c65d7b" fill-opacity="1"><g transform="translate(45.925819, 10.880731)"><g><path d="M 0.253906 -5.664062 L 0.558594 -1.65625 L 1.371094 -1.65625 L 1.675781 -5.664062 Z M 1.570312 -1.210938 L 0.363281 -1.210938 L 0.363281 0 L 1.570312 0 Z M 1.570312 -1.210938 "/></g></g></g><g fill="#c65d7b" fill-opacity="1"><g transform="translate(47.850295, 10.880731)"><g><path d="M 0.253906 -5.664062 L 0.558594 -1.65625 L 1.371094 -1.65625 L 1.675781 -5.664062 Z M 1.570312 -1.210938 L 0.363281 -1.210938 L 0.363281 0 L 1.570312 0 Z M 1.570312 -1.210938 "/></g></g></g></svg>