<svg xmlns="http://www.w3.org/2000/svg" xmlns:xlink="http://www.w3.org/1999/xlink" width="150" zoomAndPan="magnify" viewBox="0 0 112.5 112.499997" height="150" preserveAspectRatio="xMidYMid meet" version="1.0"><path fill="rgb(100%, 100%, 100%)" d="M 71.617188 33.992188 C 71.460938 34.148438 71.28125 34.285156 71.082031 34.398438 C 69.878906 35.082031 68.347656 34.660156 67.664062 33.457031 C 66.558594 31.507812 65.183594 29.707031 63.578125 28.101562 C 62.601562 27.125 62.601562 25.539062 63.578125 24.558594 C 64.558594 23.582031 66.144531 23.582031 67.125 24.558594 C 69.042969 26.480469 70.691406 28.640625 72.023438 30.980469 C 72.59375 31.984375 72.394531 33.214844 71.617188 33.992188 " fill-opacity="1" fill-rule="nonzero"/><path fill="rgb(100%, 100%, 100%)" d="M 59.085938 22.511719 C 58.367188 23.230469 57.25 23.464844 56.273438 23.019531 C 50.425781 20.347656 43.585938 20.039062 37.511719 22.171875 C 36.203125 22.632812 34.773438 21.945312 34.316406 20.640625 C 33.855469 19.332031 34.546875 17.902344 35.851562 17.445312 C 43.246094 14.847656 51.238281 15.207031 58.355469 18.460938 C 59.613281 19.035156 60.167969 20.523438 59.59375 21.78125 C 59.464844 22.0625 59.292969 22.308594 59.085938 22.511719 " fill-opacity="1" fill-rule="nonzero"/><path fill="rgb(100%, 100%, 100%)" d="M 79.253906 45.839844 C 79.253906 54.765625 75.777344 63.15625 69.464844 69.46875 C 63.15625 75.777344 54.765625 79.253906 45.839844 79.253906 C 36.917969 79.253906 28.527344 75.777344 22.214844 69.46875 C 15.90625 63.15625 12.429688 54.765625 12.429688 45.839844 C 12.429688 36.917969 15.90625 28.527344 22.214844 22.214844 C 28.527344 15.90625 36.917969 12.429688 45.839844 12.429688 C 54.765625 12.429688 63.15625 15.90625 69.464844 22.214844 C 75.777344 28.527344 79.253906 36.917969 79.253906 45.839844 Z M 16.308594 16.308594 C 0 32.621094 0 59.0625 16.308594 75.375 C 31.957031 91.019531 56.933594 91.652344 73.335938 77.273438 L 74.921875 78.855469 C 74.425781 80.714844 74.902344 82.777344 76.359375 84.230469 L 100.195312 108.070312 C 102.371094 110.246094 105.894531 110.246094 108.070312 108.070312 C 110.246094 105.894531 110.246094 102.367188 108.070312 100.195312 L 84.234375 76.359375 C 82.777344 74.902344 80.714844 74.425781 78.859375 74.921875 L 77.273438 73.335938 C 91.652344 56.933594 91.023438 31.957031 75.375 16.308594 C 59.0625 0 32.621094 0 16.308594 16.308594 " fill-opacity="1" fill-rule="nonzero"/></svg>